<mxfile host="app.diagrams.net" modified="2022-08-09T09:38:07.874Z" agent="5.0 (X11; Linux x86_64) AppleWebKit/537.36 (KHTML, like Gecko) Chrome/104.0.5112.81 Safari/537.36" etag="RKO6Hw90ikoswERux3cu" version="20.2.3" type="github">
  <diagram id="ImZkKbkfjJFn4qbT57pl" name="PÃ¡gina-1">
    <mxGraphModel dx="1422" dy="837" grid="1" gridSize="10" guides="1" tooltips="1" connect="1" arrows="1" fold="1" page="1" pageScale="1" pageWidth="827" pageHeight="1169" math="0" shadow="0">
      <root>
        <mxCell id="0" />
        <mxCell id="1" parent="0" />
        <mxCell id="tTlQyx9BJeuY2m7c3Reg-1" value="" style="whiteSpace=wrap;html=1;aspect=fixed;" vertex="1" parent="1">
          <mxGeometry x="120" y="200" width="80" height="80" as="geometry" />
        </mxCell>
        <mxCell id="tTlQyx9BJeuY2m7c3Reg-2" value="" style="whiteSpace=wrap;html=1;aspect=fixed;" vertex="1" parent="1">
          <mxGeometry x="280" y="200" width="80" height="80" as="geometry" />
        </mxCell>
        <mxCell id="tTlQyx9BJeuY2m7c3Reg-3" value="" style="whiteSpace=wrap;html=1;aspect=fixed;" vertex="1" parent="1">
          <mxGeometry x="440" y="200" width="80" height="80" as="geometry" />
        </mxCell>
        <mxCell id="tTlQyx9BJeuY2m7c3Reg-4" value="" style="endArrow=classic;html=1;rounded=0;" edge="1" parent="1" source="tTlQyx9BJeuY2m7c3Reg-1" target="tTlQyx9BJeuY2m7c3Reg-2">
          <mxGeometry width="50" height="50" relative="1" as="geometry">
            <mxPoint x="390" y="450" as="sourcePoint" />
            <mxPoint x="440" y="400" as="targetPoint" />
          </mxGeometry>
        </mxCell>
        <mxCell id="tTlQyx9BJeuY2m7c3Reg-5" value="" style="endArrow=classic;html=1;rounded=0;" edge="1" parent="1" source="tTlQyx9BJeuY2m7c3Reg-2" target="tTlQyx9BJeuY2m7c3Reg-3">
          <mxGeometry width="50" height="50" relative="1" as="geometry">
            <mxPoint x="210" y="250" as="sourcePoint" />
            <mxPoint x="290" y="250" as="targetPoint" />
            <Array as="points">
              <mxPoint x="440" y="240" />
            </Array>
          </mxGeometry>
        </mxCell>
        <mxCell id="tTlQyx9BJeuY2m7c3Reg-6" value="S" style="text;html=1;resizable=0;autosize=1;align=center;verticalAlign=middle;points=[];fillColor=none;strokeColor=none;rounded=0;" vertex="1" parent="1">
          <mxGeometry x="145" y="225" width="30" height="30" as="geometry" />
        </mxCell>
      </root>
    </mxGraphModel>
  </diagram>
</mxfile>
